<?xml version="1.0" encoding="utf-8"?>
<svg width="94px" height="46px" viewbox="0 0 94 46" version="1.1" xmlns:xlink="http://www.w3.org/1999/xlink" xmlns="http://www.w3.org/2000/svg">
  <g id="providentia" transform="translate(0.75 -2.722931)">
    <path d="M0 0C0 0 13.8612 0.0496647 14.5077 5.78512C15.1542 11.5206 4.18939 9.71901 4.18939 9.71901L4.18939 28" transform="translate(0 13.722931)" id="New-shape-2" fill="none" fill-rule="evenodd" stroke="#000000" stroke-width="1.5" />
    <path d="M0 0.5C0 0.223858 0.223858 0 0.5 0C0.776142 0 1 0.223858 1 0.5C1 0.776142 0.776142 1 0.5 1C0.223858 1 0 0.776142 0 0.5Z" transform="matrix(-1 0 0 1 4.511307 46.737427)" id="Ellipse" fill="#FFFFFF" fill-rule="evenodd" stroke="#000000" stroke-width="1.5" />
    <g id="rovidentia" transform="translate(18.669678 0)">
      <path d="M22.3477 16.4502L21.6445 16.4502L21.6445 17.1533L22.3477 17.1533L22.3477 16.4502ZM29.1816 16.4502L29.8848 16.4502L29.8848 23.5498L29.1816 23.5498L29.1816 22.8988Q28.9916 23.2509 28.6445 23.4204Q28.2295 23.623 27.6143 23.623Q27.0625 23.623 26.667 23.3813Q26.2715 23.1396 26.0664 22.6807Q25.8613 22.2217 25.8613 21.5771L25.8613 20.4736Q25.8613 19.8193 26.0615 19.3555Q26.2617 18.8916 26.645 18.6499Q27.0283 18.4082 27.5654 18.4082Q28.1465 18.4082 28.5835 18.6255Q28.9404 18.8029 29.1816 19.1643L29.1816 16.4502ZM53.7539 16.4502L54.457 16.4502L54.457 17.1533L53.7539 17.1533L53.7539 16.4502ZM48.7632 23.2349Q49.0488 23.5742 49.6641 23.5742L50.2402 23.5742L50.2402 22.9199L49.7617 22.9199Q49.4736 22.9199 49.3271 22.7441Q49.1807 22.5684 49.1807 22.2412L49.1807 19.0869L50.2402 19.0869L50.2402 18.4814L49.1807 18.4814L49.1807 17.0068L48.4775 17.0068L48.4775 18.4814L47.9551 18.4814L47.9551 19.0869L48.4775 19.0869L48.4775 22.2314Q48.4775 22.8955 48.7632 23.2349ZM3.37158 19.1455Q3.6084 19.2285 3.76465 19.3896L4.21875 18.8037Q4.00879 18.6084 3.72803 18.5083Q3.44727 18.4082 3.10059 18.4082Q2.56348 18.4082 2.11182 18.6597Q1.73906 18.8672 1.48438 19.2128L1.48438 18.4814L0.78125 18.4814L0.78125 23.5498L1.48438 23.5498L1.48438 20.3418Q1.48438 19.7412 1.83594 19.4019Q2.1875 19.0625 2.82227 19.0625Q3.13477 19.0625 3.37158 19.1455ZM7.86426 23.3643Q8.33301 23.623 8.99219 23.623Q9.65137 23.623 10.1201 23.3643Q10.5889 23.1055 10.8354 22.6147Q11.082 22.124 11.082 21.4307L11.082 20.5908Q11.082 19.9023 10.8354 19.4116Q10.5889 18.9209 10.1201 18.6646Q9.65137 18.4082 8.99219 18.4082Q8.33301 18.4082 7.86426 18.6646Q7.39551 18.9209 7.14893 19.4116Q6.90234 19.9023 6.90234 20.5908L6.90234 21.416Q6.90234 22.1143 7.14893 22.6099Q7.39551 23.1055 7.86426 23.3643ZM34.2725 23.3569Q34.7705 23.623 35.4736 23.623Q35.9521 23.623 36.4209 23.4253Q36.8896 23.2275 37.2607 22.8662L36.7822 22.4072Q36.5137 22.6758 36.1694 22.8223Q35.8252 22.9688 35.4736 22.9688Q34.7266 22.9688 34.3164 22.5513Q33.9063 22.1338 33.9063 21.3721L33.9063 21.3232L37.3926 21.3232L37.3926 20.7422Q37.3926 20.0049 37.1558 19.48Q36.9189 18.9551 36.4697 18.6816Q36.0205 18.4082 35.3857 18.4082Q34.7119 18.4082 34.2334 18.6865Q33.7549 18.9648 33.5034 19.4971Q33.252 20.0293 33.252 20.7813L33.252 21.3525Q33.252 22.0703 33.5132 22.5806Q33.7744 23.0908 34.2725 23.3569ZM44.1289 20.4785Q44.1289 19.8047 43.7749 19.4336Q43.4209 19.0625 42.7764 19.0625Q42.1514 19.0625 41.8071 19.3921Q41.4629 19.7217 41.4629 20.3271L41.4629 23.5498L40.7598 23.5498L40.7598 18.4814L41.4629 18.4814L41.4629 19.18Q41.709 18.8125 42.0732 18.6304Q42.5176 18.4082 43.1035 18.4082Q43.9287 18.4082 44.3804 18.9478Q44.832 19.4873 44.832 20.4736L44.832 23.5498L44.1289 23.5498L44.1289 20.4785ZM60.8931 19.3823Q61.2227 19.7217 61.2227 20.3369L61.2227 20.5518L59.582 20.5518Q58.7666 20.5518 58.3198 20.9448Q57.873 21.3379 57.873 22.0557Q57.873 22.8027 58.3613 23.2129Q58.8496 23.623 59.7383 23.623Q60.0898 23.623 60.395 23.5645Q60.7002 23.5059 60.937 23.3911Q61.1001 23.3121 61.2227 23.2134L61.2227 23.5498L61.9258 23.5498L61.9258 20.293Q61.9258 19.6973 61.6914 19.2749Q61.457 18.8525 61.0078 18.6304Q60.5586 18.4082 59.9287 18.4082Q59.3525 18.4082 58.8813 18.6011Q58.4102 18.7939 58.1221 19.1406L58.6348 19.4922Q58.9033 19.2773 59.25 19.1602Q59.5967 19.043 59.958 19.043Q60.5635 19.043 60.8931 19.3823ZM61.2227 22.4561L61.2227 21.2061L59.5869 21.2061Q59.0986 21.2061 58.8325 21.4282Q58.5664 21.6504 58.5664 22.0557Q58.5664 22.4854 58.9009 22.7222Q59.2354 22.959 59.8457 22.959Q60.5 22.959 60.8613 22.8271Q61.2227 22.6953 61.2227 22.4561ZM17.7744 18.4814L18.5215 18.4814L16.5195 23.5498L15.9629 23.5498L13.9609 18.4814L14.708 18.4814L16.2412 22.6367L17.7744 18.4814ZM22.3477 18.4814L21.6445 18.4814L21.6445 23.5498L22.3477 23.5498L22.3477 18.4814ZM53.7539 18.4814L54.457 18.4814L54.457 23.5498L53.7539 23.5498L53.7539 18.4814ZM29.1816 20.3125L29.1816 21.6943Q29.1816 22.0264 29.0254 22.3315Q28.8691 22.6367 28.5762 22.8271Q28.2832 23.0176 27.8926 23.0176Q27.2578 23.0176 26.9111 22.6392Q26.5645 22.2607 26.5645 21.5771L26.5645 20.4785Q26.5645 19.7803 26.9111 19.397Q27.2578 19.0137 27.8926 19.0137Q28.2881 19.0137 28.5811 19.1992Q28.874 19.3848 29.0278 19.6826Q29.1816 19.9805 29.1816 20.3125ZM10.0151 22.5659Q9.65137 22.9688 8.9873 22.9688Q8.32813 22.9688 7.9668 22.5659Q7.60547 22.1631 7.60547 21.4307L7.60547 20.5908Q7.60547 19.8633 7.9668 19.4629Q8.32813 19.0625 8.9873 19.0625Q9.65137 19.0625 10.0151 19.4629Q10.3789 19.8633 10.3789 20.5908L10.3789 21.4307Q10.3789 22.1631 10.0151 22.5659ZM33.9065 20.6885Q33.9158 19.9209 34.292 19.4971Q34.6777 19.0625 35.3857 19.0625Q36.0303 19.0625 36.3843 19.4751Q36.7383 19.8877 36.7383 20.6396L36.7383 20.6885L33.9065 20.6885Z" />
    </g>
  </g>
</svg>